<!DOCTYPE svg PUBLIC "-//W3C//DTD SVG 1.1//EN" "http://www.w3.org/Graphics/SVG/1.1/DTD/svg11.dtd">
<!-- Uploaded to: SVG Repo, www.svgrepo.com, Transformed by: SVG Repo Mixer Tools -->
<svg fill="#000000" version="1.1" id="Capa_1" xmlns="http://www.w3.org/2000/svg" xmlns:xlink="http://www.w3.org/1999/xlink" viewBox="0 0 490 490" xml:space="preserve" width="800px" height="800px">
<g id="SVGRepo_bgCarrier" stroke-width="0"/>
<g id="SVGRepo_tracerCarrier" stroke-linecap="round" stroke-linejoin="round"/>
<g id="SVGRepo_iconCarrier"> <g> <g> <g> <g> <rect x="51.7" y="51.7" width="386.9" height="386.9"/> </g> <g> <path d="M479.1,117.5c-6.2,0-10.9-5.1-10.9-10.9V21.8h-84.4c-6.2,0-10.9-5.1-10.9-10.9S377.6,0,383.8,0h95.3 c6.2,0,10.9,5.1,10.9,10.9v95.3C490,112.4,484.9,117.5,479.1,117.5z"/> </g> <g> <path d="M10.9,117.5c-6.2,0-10.9-5.1-10.9-10.9V10.9C0,5.1,5.1,0,10.9,0h95.3c6.2,0,10.9,5.1,10.9,10.9s-5.1,10.9-10.9,10.9 H21.8v84.4C21.8,112.4,17.1,117.5,10.9,117.5z"/> </g> <g> <path d="M479.1,490h-95.3c-6.2,0-10.9-5.1-10.9-10.9s5.1-10.9,10.9-10.9h84.4v-84.4c0-6.2,5.1-10.9,10.9-10.9S490,378,490,383.8 v95.3C490,484.9,484.9,490,479.1,490z"/> </g> <g> <path d="M106.2,490H10.9C4.7,490,0,484.9,0,479.1v-95.3c0-6.2,5.1-10.9,10.9-10.9s10.9,5.1,10.9,10.9v84.4h84.4 c6.2,0,10.9,5.1,10.9,10.9S112.4,490,106.2,490z"/> </g> </g> </g> </g> </g>
</svg>